<?xml version="1.0" encoding="UTF-8"?>
<!DOCTYPE svg PUBLIC "-//W3C//DTD SVG 1.1//EN" "http://www.w3.org/Graphics/SVG/1.1/DTD/svg11.dtd">
<svg version="1.2" width="49.51mm" height="44.24mm" viewBox="3079 5515 4951 4424" preserveAspectRatio="xMidYMid" fill-rule="evenodd" stroke-width="28.222" stroke-linejoin="round" xmlns="http://www.w3.org/2000/svg" xmlns:ooo="http://xml.openoffice.org/svg/export" xmlns:xlink="http://www.w3.org/1999/xlink" xmlns:presentation="http://sun.com/xmlns/staroffice/presentation" xmlns:smil="http://www.w3.org/2001/SMIL20/" xmlns:anim="urn:oasis:names:tc:opendocument:xmlns:animation:1.0" xml:space="preserve">
 <defs class="ClipPathGroup">
  <clipPath id="presentation_clip_path" clipPathUnits="userSpaceOnUse">
   <rect x="3079" y="5515" width="4951" height="4424"/>
  </clipPath>
 </defs>
 <defs class="TextShapeIndex">
  <g ooo:slide="id1" ooo:id-list="id3 id4 id5 id6 id7 id8 id9 id10 id11 id12 id13"/>
 </defs>
 <defs class="EmbeddedBulletChars">
  <g id="bullet-char-template(57356)" transform="scale(0.00048828125,-0.00048828125)">
   <path d="M 580,1141 L 1163,571 580,0 -4,571 580,1141 Z"/>
  </g>
  <g id="bullet-char-template(57354)" transform="scale(0.00048828125,-0.00048828125)">
   <path d="M 8,1128 L 1137,1128 1137,0 8,0 8,1128 Z"/>
  </g>
  <g id="bullet-char-template(10146)" transform="scale(0.00048828125,-0.00048828125)">
   <path d="M 174,0 L 602,739 174,1481 1456,739 174,0 Z M 1358,739 L 309,1346 659,739 1358,739 Z"/>
  </g>
  <g id="bullet-char-template(10132)" transform="scale(0.00048828125,-0.00048828125)">
   <path d="M 2015,739 L 1276,0 717,0 1260,543 174,543 174,936 1260,936 717,1481 1274,1481 2015,739 Z"/>
  </g>
  <g id="bullet-char-template(10007)" transform="scale(0.00048828125,-0.00048828125)">
   <path d="M 0,-2 C -7,14 -16,27 -25,37 L 356,567 C 262,823 215,952 215,954 215,979 228,992 255,992 264,992 276,990 289,987 310,991 331,999 354,1012 L 381,999 492,748 772,1049 836,1024 860,1049 C 881,1039 901,1025 922,1006 886,937 835,863 770,784 769,783 710,716 594,584 L 774,223 C 774,196 753,168 711,139 L 727,119 C 717,90 699,76 672,76 641,76 570,178 457,381 L 164,-76 C 142,-110 111,-127 72,-127 30,-127 9,-110 8,-76 1,-67 -2,-52 -2,-32 -2,-23 -1,-13 0,-2 Z"/>
  </g>
  <g id="bullet-char-template(10004)" transform="scale(0.00048828125,-0.00048828125)">
   <path d="M 285,-33 C 182,-33 111,30 74,156 52,228 41,333 41,471 41,549 55,616 82,672 116,743 169,778 240,778 293,778 328,747 346,684 L 369,508 C 377,444 397,411 428,410 L 1163,1116 C 1174,1127 1196,1133 1229,1133 1271,1133 1292,1118 1292,1087 L 1292,965 C 1292,929 1282,901 1262,881 L 442,47 C 390,-6 338,-33 285,-33 Z"/>
  </g>
  <g id="bullet-char-template(9679)" transform="scale(0.00048828125,-0.00048828125)">
   <path d="M 813,0 C 632,0 489,54 383,161 276,268 223,411 223,592 223,773 276,916 383,1023 489,1130 632,1184 813,1184 992,1184 1136,1130 1245,1023 1353,916 1407,772 1407,592 1407,412 1353,268 1245,161 1136,54 992,0 813,0 Z"/>
  </g>
  <g id="bullet-char-template(8226)" transform="scale(0.00048828125,-0.00048828125)">
   <path d="M 346,457 C 273,457 209,483 155,535 101,586 74,649 74,723 74,796 101,859 155,911 209,963 273,989 346,989 419,989 480,963 531,910 582,859 608,796 608,723 608,648 583,586 532,535 482,483 420,457 346,457 Z"/>
  </g>
  <g id="bullet-char-template(8211)" transform="scale(0.00048828125,-0.00048828125)">
   <path d="M -4,459 L 1135,459 1135,606 -4,606 -4,459 Z"/>
  </g>
 </defs>
 <defs class="TextEmbeddedBitmaps"/>
 <g class="SlideGroup">
  <g>
   <g id="id1" class="Slide" clip-path="url(#presentation_clip_path)">
    <g class="Page">
     <g class="com.sun.star.drawing.CustomShape">
      <g id="id3">
       <rect class="BoundingBox" stroke="none" fill="none" x="3078" y="8412" width="385" height="385"/>
       <path fill="rgb(0,0,0)" stroke="none" d="M 3269,8413 C 3377,8413 3460,8495 3460,8603 3460,8711 3377,8794 3269,8794 3161,8794 3079,8711 3079,8603 3079,8495 3161,8413 3269,8413 Z M 3079,8413 L 3079,8413 Z M 3461,8795 L 3461,8795 Z"/>
       <path fill="none" stroke="rgb(0,0,0)" d="M 3269,8413 C 3377,8413 3460,8495 3460,8603 3460,8711 3377,8794 3269,8794 3161,8794 3079,8711 3079,8603 3079,8495 3161,8413 3269,8413 Z"/>
       <path fill="none" stroke="rgb(0,0,0)" d="M 3079,8413 L 3079,8413 Z"/>
       <path fill="none" stroke="rgb(0,0,0)" d="M 3461,8795 L 3461,8795 Z"/>
      </g>
     </g>
     <g class="com.sun.star.drawing.CustomShape">
      <g id="id4">
       <rect class="BoundingBox" stroke="none" fill="none" x="3454" y="6499" width="385" height="385"/>
       <path fill="rgb(0,0,0)" stroke="none" d="M 3645,6500 C 3753,6500 3836,6582 3836,6690 3836,6798 3753,6881 3645,6881 3537,6881 3455,6798 3455,6690 3455,6582 3537,6500 3645,6500 Z M 3455,6500 L 3455,6500 Z M 3837,6882 L 3837,6882 Z"/>
       <path fill="none" stroke="rgb(0,0,0)" d="M 3645,6500 C 3753,6500 3836,6582 3836,6690 3836,6798 3753,6881 3645,6881 3537,6881 3455,6798 3455,6690 3455,6582 3537,6500 3645,6500 Z"/>
       <path fill="none" stroke="rgb(0,0,0)" d="M 3455,6500 L 3455,6500 Z"/>
       <path fill="none" stroke="rgb(0,0,0)" d="M 3837,6882 L 3837,6882 Z"/>
      </g>
     </g>
     <g class="com.sun.star.drawing.CustomShape">
      <g id="id5">
       <rect class="BoundingBox" stroke="none" fill="none" x="5748" y="5514" width="385" height="385"/>
       <path fill="rgb(0,0,0)" stroke="none" d="M 5939,5515 C 6047,5515 6130,5597 6130,5705 6130,5813 6047,5896 5939,5896 5831,5896 5749,5813 5749,5705 5749,5597 5831,5515 5939,5515 Z M 5749,5515 L 5749,5515 Z M 6131,5897 L 6131,5897 Z"/>
       <path fill="none" stroke="rgb(0,0,0)" d="M 5939,5515 C 6047,5515 6130,5597 6130,5705 6130,5813 6047,5896 5939,5896 5831,5896 5749,5813 5749,5705 5749,5597 5831,5515 5939,5515 Z"/>
       <path fill="none" stroke="rgb(0,0,0)" d="M 5749,5515 L 5749,5515 Z"/>
       <path fill="none" stroke="rgb(0,0,0)" d="M 6131,5897 L 6131,5897 Z"/>
      </g>
     </g>
     <g class="com.sun.star.drawing.CustomShape">
      <g id="id6">
       <rect class="BoundingBox" stroke="none" fill="none" x="7646" y="7546" width="385" height="385"/>
       <path fill="rgb(0,0,0)" stroke="none" d="M 7837,7547 C 7945,7547 8028,7629 8028,7737 8028,7845 7945,7928 7837,7928 7729,7928 7647,7845 7647,7737 7647,7629 7729,7547 7837,7547 Z M 7647,7547 L 7647,7547 Z M 8029,7929 L 8029,7929 Z"/>
       <path fill="none" stroke="rgb(0,0,0)" d="M 7837,7547 C 7945,7547 8028,7629 8028,7737 8028,7845 7945,7928 7837,7928 7729,7928 7647,7845 7647,7737 7647,7629 7729,7547 7837,7547 Z"/>
       <path fill="none" stroke="rgb(0,0,0)" d="M 7647,7547 L 7647,7547 Z"/>
       <path fill="none" stroke="rgb(0,0,0)" d="M 8029,7929 L 8029,7929 Z"/>
      </g>
     </g>
     <g class="com.sun.star.drawing.CustomShape">
      <g id="id7">
       <rect class="BoundingBox" stroke="none" fill="none" x="6530" y="9555" width="385" height="385"/>
       <path fill="rgb(0,0,0)" stroke="none" d="M 6721,9556 C 6829,9556 6912,9638 6912,9746 6912,9854 6829,9937 6721,9937 6613,9937 6531,9854 6531,9746 6531,9638 6613,9556 6721,9556 Z M 6531,9556 L 6531,9556 Z M 6913,9938 L 6913,9938 Z"/>
       <path fill="none" stroke="rgb(0,0,0)" d="M 6721,9556 C 6829,9556 6912,9638 6912,9746 6912,9854 6829,9937 6721,9937 6613,9937 6531,9854 6531,9746 6531,9638 6613,9556 6721,9556 Z"/>
       <path fill="none" stroke="rgb(0,0,0)" d="M 6531,9556 L 6531,9556 Z"/>
       <path fill="none" stroke="rgb(0,0,0)" d="M 6913,9938 L 6913,9938 Z"/>
      </g>
     </g>
     <g class="com.sun.star.drawing.CustomShape">
      <g id="id8">
       <rect class="BoundingBox" stroke="none" fill="none" x="4681" y="6713" width="385" height="385"/>
       <path fill="rgb(0,0,0)" stroke="none" d="M 4872,6714 C 4980,6714 5063,6796 5063,6904 5063,7012 4980,7095 4872,7095 4764,7095 4682,7012 4682,6904 4682,6796 4764,6714 4872,6714 Z M 4682,6714 L 4682,6714 Z M 5064,7096 L 5064,7096 Z"/>
       <path fill="none" stroke="rgb(0,0,0)" d="M 4872,6714 C 4980,6714 5063,6796 5063,6904 5063,7012 4980,7095 4872,7095 4764,7095 4682,7012 4682,6904 4682,6796 4764,6714 4872,6714 Z"/>
       <path fill="none" stroke="rgb(0,0,0)" d="M 4682,6714 L 4682,6714 Z"/>
       <path fill="none" stroke="rgb(0,0,0)" d="M 5064,7096 L 5064,7096 Z"/>
      </g>
     </g>
     <g class="com.sun.star.drawing.CustomShape">
      <g id="id9">
       <rect class="BoundingBox" stroke="none" fill="none" x="6332" y="6459" width="385" height="385"/>
       <path fill="rgb(0,0,0)" stroke="none" d="M 6523,6460 C 6631,6460 6714,6542 6714,6650 6714,6758 6631,6841 6523,6841 6415,6841 6333,6758 6333,6650 6333,6542 6415,6460 6523,6460 Z M 6333,6460 L 6333,6460 Z M 6715,6842 L 6715,6842 Z"/>
       <path fill="none" stroke="rgb(0,0,0)" d="M 6523,6460 C 6631,6460 6714,6542 6714,6650 6714,6758 6631,6841 6523,6841 6415,6841 6333,6758 6333,6650 6333,6542 6415,6460 6523,6460 Z"/>
       <path fill="none" stroke="rgb(0,0,0)" d="M 6333,6460 L 6333,6460 Z"/>
       <path fill="none" stroke="rgb(0,0,0)" d="M 6715,6842 L 6715,6842 Z"/>
      </g>
     </g>
     <g class="com.sun.star.drawing.CustomShape">
      <g id="id10">
       <rect class="BoundingBox" stroke="none" fill="none" x="5316" y="7475" width="385" height="385"/>
       <path fill="rgb(0,0,0)" stroke="none" d="M 5507,7476 C 5615,7476 5698,7558 5698,7666 5698,7774 5615,7857 5507,7857 5399,7857 5317,7774 5317,7666 5317,7558 5399,7476 5507,7476 Z M 5317,7476 L 5317,7476 Z M 5699,7858 L 5699,7858 Z"/>
       <path fill="none" stroke="rgb(0,0,0)" d="M 5507,7476 C 5615,7476 5698,7558 5698,7666 5698,7774 5615,7857 5507,7857 5399,7857 5317,7774 5317,7666 5317,7558 5399,7476 5507,7476 Z"/>
       <path fill="none" stroke="rgb(0,0,0)" d="M 5317,7476 L 5317,7476 Z"/>
       <path fill="none" stroke="rgb(0,0,0)" d="M 5699,7858 L 5699,7858 Z"/>
      </g>
     </g>
     <g class="com.sun.star.drawing.CustomShape">
      <g id="id11">
       <rect class="BoundingBox" stroke="none" fill="none" x="6332" y="8237" width="385" height="385"/>
       <path fill="rgb(0,0,0)" stroke="none" d="M 6523,8238 C 6631,8238 6714,8320 6714,8428 6714,8536 6631,8619 6523,8619 6415,8619 6333,8536 6333,8428 6333,8320 6415,8238 6523,8238 Z M 6333,8238 L 6333,8238 Z M 6715,8620 L 6715,8620 Z"/>
       <path fill="none" stroke="rgb(0,0,0)" d="M 6523,8238 C 6631,8238 6714,8320 6714,8428 6714,8536 6631,8619 6523,8619 6415,8619 6333,8536 6333,8428 6333,8320 6415,8238 6523,8238 Z"/>
       <path fill="none" stroke="rgb(0,0,0)" d="M 6333,8238 L 6333,8238 Z"/>
       <path fill="none" stroke="rgb(0,0,0)" d="M 6715,8620 L 6715,8620 Z"/>
      </g>
     </g>
     <g class="com.sun.star.drawing.CustomShape">
      <g id="id12">
       <rect class="BoundingBox" stroke="none" fill="none" x="4808" y="8110" width="385" height="385"/>
       <path fill="rgb(0,0,0)" stroke="none" d="M 4999,8111 C 5107,8111 5190,8193 5190,8301 5190,8409 5107,8492 4999,8492 4891,8492 4809,8409 4809,8301 4809,8193 4891,8111 4999,8111 Z M 4809,8111 L 4809,8111 Z M 5191,8493 L 5191,8493 Z"/>
       <path fill="none" stroke="rgb(0,0,0)" d="M 4999,8111 C 5107,8111 5190,8193 5190,8301 5190,8409 5107,8492 4999,8492 4891,8492 4809,8409 4809,8301 4809,8193 4891,8111 4999,8111 Z"/>
       <path fill="none" stroke="rgb(0,0,0)" d="M 4809,8111 L 4809,8111 Z"/>
       <path fill="none" stroke="rgb(0,0,0)" d="M 5191,8493 L 5191,8493 Z"/>
      </g>
     </g>
     <g class="com.sun.star.drawing.PolyLineShape">
      <g id="id13">
       <rect class="BoundingBox" stroke="none" fill="none" x="3268" y="5681" width="4609" height="4101"/>
       <path fill="none" stroke="rgb(51,153,255)" stroke-width="35" stroke-linejoin="round" d="M 3286,8620 L 6715,9763 7858,7731 5953,5699 3667,6715 3286,8620 Z"/>
      </g>
     </g>
    </g>
   </g>
  </g>
 </g>
</svg>