<?xml version="1.0" encoding="UTF-8"?>
<!DOCTYPE svg PUBLIC "-//W3C//DTD SVG 1.1//EN" "http://www.w3.org/Graphics/SVG/1.1/DTD/svg11.dtd">
<svg version="1.2" width="210mm" height="297mm" viewBox="0 0 21000 29700" preserveAspectRatio="xMidYMid" fill-rule="evenodd" clip-path="url(#presentation_clip_path)" stroke-width="28.222" stroke-linejoin="round" xmlns="http://www.w3.org/2000/svg" xmlns:ooo="http://xml.openoffice.org/svg/export" xmlns:xlink="http://www.w3.org/1999/xlink" xml:space="preserve">
 <defs class="ClipPathGroup">
  <clipPath id="presentation_clip_path" clipPathUnits="userSpaceOnUse">
   <rect x="0" y="0" width="21000" height="29700"/>
  </clipPath>
 </defs>
 <defs class="TextShapeIndex">
  <g ooo:slide="id1" ooo:id-list="id3 id4 id5 id6 id7 id8 id9 id10 id11 id12 id13 id14 id15 id16 id17 id18 id19 id20 id21 id22 id23 id24"/>
 </defs>
 <defs class="EmbeddedBulletChars">
  <g id="bullet-char-template(57356)" transform="scale(0.00048828125,-0.00048828125)">
   <path d="M 580,1141 L 1163,571 580,0 -4,571 580,1141 Z"/>
  </g>
  <g id="bullet-char-template(57354)" transform="scale(0.00048828125,-0.00048828125)">
   <path d="M 8,1128 L 1137,1128 1137,0 8,0 8,1128 Z"/>
  </g>
  <g id="bullet-char-template(10146)" transform="scale(0.00048828125,-0.00048828125)">
   <path d="M 174,0 L 602,739 174,1481 1456,739 174,0 Z M 1358,739 L 309,1346 659,739 1358,739 Z"/>
  </g>
  <g id="bullet-char-template(10132)" transform="scale(0.00048828125,-0.00048828125)">
   <path d="M 2015,739 L 1276,0 717,0 1260,543 174,543 174,936 1260,936 717,1481 1274,1481 2015,739 Z"/>
  </g>
  <g id="bullet-char-template(10007)" transform="scale(0.00048828125,-0.00048828125)">
   <path d="M 0,-2 C -7,14 -16,27 -25,37 L 356,567 C 262,823 215,952 215,954 215,979 228,992 255,992 264,992 276,990 289,987 310,991 331,999 354,1012 L 381,999 492,748 772,1049 836,1024 860,1049 C 881,1039 901,1025 922,1006 886,937 835,863 770,784 769,783 710,716 594,584 L 774,223 C 774,196 753,168 711,139 L 727,119 C 717,90 699,76 672,76 641,76 570,178 457,381 L 164,-76 C 142,-110 111,-127 72,-127 30,-127 9,-110 8,-76 1,-67 -2,-52 -2,-32 -2,-23 -1,-13 0,-2 Z"/>
  </g>
  <g id="bullet-char-template(10004)" transform="scale(0.00048828125,-0.00048828125)">
   <path d="M 285,-33 C 182,-33 111,30 74,156 52,228 41,333 41,471 41,549 55,616 82,672 116,743 169,778 240,778 293,778 328,747 346,684 L 369,508 C 377,444 397,411 428,410 L 1163,1116 C 1174,1127 1196,1133 1229,1133 1271,1133 1292,1118 1292,1087 L 1292,965 C 1292,929 1282,901 1262,881 L 442,47 C 390,-6 338,-33 285,-33 Z"/>
  </g>
  <g id="bullet-char-template(9679)" transform="scale(0.00048828125,-0.00048828125)">
   <path d="M 813,0 C 632,0 489,54 383,161 276,268 223,411 223,592 223,773 276,916 383,1023 489,1130 632,1184 813,1184 992,1184 1136,1130 1245,1023 1353,916 1407,772 1407,592 1407,412 1353,268 1245,161 1136,54 992,0 813,0 Z"/>
  </g>
  <g id="bullet-char-template(8226)" transform="scale(0.00048828125,-0.00048828125)">
   <path d="M 346,457 C 273,457 209,483 155,535 101,586 74,649 74,723 74,796 101,859 155,911 209,963 273,989 346,989 419,989 480,963 531,910 582,859 608,796 608,723 608,648 583,586 532,535 482,483 420,457 346,457 Z"/>
  </g>
  <g id="bullet-char-template(8211)" transform="scale(0.00048828125,-0.00048828125)">
   <path d="M -4,459 L 1135,459 1135,606 -4,606 -4,459 Z"/>
  </g>
 </defs>
 <defs class="TextEmbeddedBitmaps"/>
 <g>
  <g id="id2" class="Master_Slide">
   <g id="bg-id2" class="Background"/>
   <g id="bo-id2" class="BackgroundObjects"/>
  </g>
 </g>
 <g class="SlideGroup">
  <g>
   <g id="id1" class="Slide" clip-path="url(#presentation_clip_path)">
    <g class="Page">
     <g class="com.sun.star.drawing.CustomShape">
      <g id="id3">
       <path fill="rgb(153,102,51)" stroke="none" d="M 15600,5400 L 2399,5400 2711,4999 15289,4999 15600,5400 Z M 15600,5400 L 15600,5400 Z M 2399,4999 L 2399,4999 Z"/>
       <path fill="none" stroke="rgb(52,101,175)" d="M 15600,5400 L 2399,5400 2711,4999 15289,4999 15600,5400 Z"/>
       <path fill="none" stroke="rgb(52,101,175)" d="M 15600,5400 L 15600,5400 Z"/>
       <path fill="none" stroke="rgb(52,101,175)" d="M 2399,4999 L 2399,4999 Z"/>
      </g>
     </g>
     <g class="com.sun.star.drawing.LineShape">
      <g id="id4">
       <path fill="none" stroke="rgb(0,0,0)" stroke-width="300" d="M 3000,5200 L 3000,4700"/>
      </g>
     </g>
     <g class="com.sun.star.drawing.LineShape">
      <g id="id5">
       <path fill="none" stroke="rgb(0,0,0)" stroke-width="300" d="M 15000,5200 L 15000,4700"/>
      </g>
     </g>
     <g class="com.sun.star.drawing.LineShape">
      <g id="id6">
       <path fill="none" stroke="rgb(102,102,102)" stroke-width="50" d="M 3033,4875 L 15033,4875"/>
      </g>
     </g>
     <g class="Group">
      <g class="com.sun.star.drawing.ClosedFreeHandShape">
       <g id="id7">
        <path fill="rgb(255,204,255)" stroke="none" d="M 12229,2300 C 12208,2361 12173,2408 12151,2467 12128,2528 12094,2579 12069,2638 12037,2711 12006,2786 11969,2854 11940,2908 11926,2976 11903,3036 11884,3088 11869,3145 11848,3196 11824,3256 11795,3313 11778,3377 11761,3439 11727,3481 11707,3537 11686,3597 11662,3657 11639,3715 11606,3801 11569,3886 11530,3967 11500,4031 11485,4112 11447,4170 11424,4206 11419,4260 11406,4305 11394,4348 11378,4389 11367,4434 11359,4468 11354,4505 11353,4544 11352,4583 11359,4622 11375,4654 11393,4693 11420,4726 11450,4746 11476,4764 11507,4763 11535,4771 11560,4779 11587,4780 11612,4775 11639,4770 11664,4750 11688,4732 11714,4712 11740,4687 11763,4657 11789,4624 11811,4585 11831,4544 11847,4509 11870,4477 11879,4437 11889,4394 11905,4357 11921,4320 11935,4285 11950,4250 11962,4213 11975,4170 11995,4135 12010,4096 12028,4052 12042,4007 12059,3964 12074,3925 12087,3882 12103,3843 12119,3801 12139,3761 12161,3726 12183,3689 12202,3647 12227,3616 12252,3584 12267,3544 12289,3509 12311,3474 12330,3435 12347,3395 12359,3369 12390,3285 12411,3367 12419,3401 12423,3438 12423,3473 12423,3512 12422,3551 12416,3587 12409,3626 12407,3668 12406,3708 12405,3743 12411,3780 12404,3815 12390,3876 12439,3856 12452,3840 12479,3805 12513,3778 12532,3733 12551,3690 12568,3643 12593,3605 12609,3581 12649,3522 12666,3576 12676,3610 12676,3653 12668,3690 12659,3729 12655,3771 12646,3811 12638,3849 12624,3884 12624,3925 12624,3962 12614,4013 12636,4035 12662,4062 12693,4010 12714,3985 12739,3956 12754,3911 12775,3875 12804,3824 12835,3778 12869,3730 12892,3697 12904,3631 12935,3633 12968,3636 12983,3709 12983,3758 12983,3798 12986,3838 12976,3878 12966,3922 12952,3965 12947,4010 12942,4050 12933,4091 12937,4131 12941,4172 12955,4217 12986,4231 13013,4243 13045,4247 13071,4216 13106,4175 13129,4118 13153,4067 13176,4020 13201,3974 13216,3921 13229,3879 13239,3834 13248,3790 13257,3740 13277,3698 13282,3647 13286,3606 13304,3570 13309,3530 13314,3479 13329,3432 13340,3385 13353,3330 13352,3270 13367,3217 13381,3167 13384,3115 13394,3065 13401,3025 13410,2988 13415,2947 13420,2906 13435,2866 13444,2826 13455,2779 13459,2729 13478,2688 L 13491,2652 13500,2631 12229,2300 Z"/>
        <path fill="none" stroke="rgb(0,0,0)" stroke-width="20" d="M 12229,2300 C 12208,2361 12173,2408 12151,2467 12128,2528 12094,2579 12069,2638 12037,2711 12006,2786 11969,2854 11940,2908 11926,2976 11903,3036 11884,3088 11869,3145 11848,3196 11824,3256 11795,3313 11778,3377 11761,3439 11727,3481 11707,3537 11686,3597 11662,3657 11639,3715 11606,3801 11569,3886 11530,3967 11500,4031 11485,4112 11447,4170 11424,4206 11419,4260 11406,4305 11394,4348 11378,4389 11367,4434 11359,4468 11354,4505 11353,4544 11352,4583 11359,4622 11375,4654 11393,4693 11420,4726 11450,4746 11476,4764 11507,4763 11535,4771 11560,4779 11587,4780 11612,4775 11639,4770 11664,4750 11688,4732 11714,4712 11740,4687 11763,4657 11789,4624 11811,4585 11831,4544 11847,4509 11870,4477 11879,4437 11889,4394 11905,4357 11921,4320 11935,4285 11950,4250 11962,4213 11975,4170 11995,4135 12010,4096 12028,4052 12042,4007 12059,3964 12074,3925 12087,3882 12103,3843 12119,3801 12139,3761 12161,3726 12183,3689 12202,3647 12227,3616 12252,3584 12267,3544 12289,3509 12311,3474 12330,3435 12347,3395 12359,3369 12390,3285 12411,3367 12419,3401 12423,3438 12423,3473 12423,3512 12422,3551 12416,3587 12409,3626 12407,3668 12406,3708 12405,3743 12411,3780 12404,3815 12390,3876 12439,3856 12452,3840 12479,3805 12513,3778 12532,3733 12551,3690 12568,3643 12593,3605 12609,3581 12649,3522 12666,3576 12676,3610 12676,3653 12668,3690 12659,3729 12655,3771 12646,3811 12638,3849 12624,3884 12624,3925 12624,3962 12614,4013 12636,4035 12662,4062 12693,4010 12714,3985 12739,3956 12754,3911 12775,3875 12804,3824 12835,3778 12869,3730 12892,3697 12904,3631 12935,3633 12968,3636 12983,3709 12983,3758 12983,3798 12986,3838 12976,3878 12966,3922 12952,3965 12947,4010 12942,4050 12933,4091 12937,4131 12941,4172 12955,4217 12986,4231 13013,4243 13045,4247 13071,4216 13106,4175 13129,4118 13153,4067 13176,4020 13201,3974 13216,3921 13229,3879 13239,3834 13248,3790 13257,3740 13277,3698 13282,3647 13286,3606 13304,3570 13309,3530 13314,3479 13329,3432 13340,3385 13353,3330 13352,3270 13367,3217 13381,3167 13384,3115 13394,3065 13401,3025 13410,2988 13415,2947 13420,2906 13435,2866 13444,2826 13455,2779 13459,2729 13478,2688 L 13491,2652 13500,2631 12229,2300 Z"/>
       </g>
      </g>
      <g class="com.sun.star.drawing.LineShape">
       <g id="id8">
        <path fill="none" stroke="rgb(255,204,255)" stroke-width="100" d="M 12200,2300 L 13500,2600"/>
       </g>
      </g>
      <g class="com.sun.star.drawing.OpenFreeHandShape">
       <g id="id9">
        <path fill="none" stroke="rgb(0,0,0)" stroke-width="20" d="M 10749,4266 L 10881,4431 10997,4547"/>
       </g>
      </g>
      <g class="com.sun.star.drawing.OpenFreeHandShape">
       <g id="id10">
        <path fill="none" stroke="rgb(0,0,0)" stroke-width="20" d="M 10849,4067 L 10981,4232 11097,4348"/>
       </g>
      </g>
      <g class="com.sun.star.drawing.OpenFreeHandShape">
       <g id="id11">
        <path fill="none" stroke="rgb(0,0,0)" stroke-width="20" d="M 10949,3867 L 11081,4032 11197,4148"/>
       </g>
      </g>
     </g>
     <g class="Group">
      <g class="com.sun.star.drawing.ClosedFreeHandShape">
       <g id="id12">
        <path fill="rgb(255,204,255)" stroke="none" d="M 11780,5922 C 11759,5983 11724,6030 11702,6089 11679,6150 11645,6201 11620,6260 11588,6333 11557,6408 11520,6476 11491,6530 11477,6598 11454,6658 11435,6710 11420,6767 11399,6818 11375,6878 11346,6935 11329,6999 11312,7061 11278,7103 11258,7159 11237,7219 11213,7279 11190,7337 11157,7423 11120,7508 11081,7589 11051,7653 11036,7734 10998,7792 10975,7828 10970,7882 10957,7927 10945,7970 10929,8011 10918,8056 10910,8090 10905,8127 10904,8166 10903,8205 10910,8244 10926,8276 10944,8315 10971,8348 11001,8368 11027,8386 11058,8385 11086,8393 11111,8401 11138,8402 11163,8397 11190,8392 11215,8372 11239,8354 11265,8334 11291,8309 11314,8279 11340,8246 11362,8207 11382,8166 11398,8131 11421,8099 11430,8059 11440,8016 11456,7979 11472,7942 11486,7907 11501,7872 11513,7835 11526,7792 11546,7757 11561,7718 11579,7674 11593,7629 11610,7586 11625,7547 11638,7504 11654,7465 11670,7423 11690,7383 11712,7348 11734,7311 11753,7269 11778,7238 11803,7206 11818,7166 11840,7131 11862,7096 11881,7057 11898,7017 11910,6991 11941,6907 11962,6989 11970,7023 11974,7060 11974,7095 11974,7134 11973,7173 11967,7209 11960,7248 11958,7290 11957,7330 11956,7365 11962,7402 11955,7437 11941,7498 11990,7478 12003,7462 12030,7427 12064,7400 12083,7355 12102,7312 12119,7265 12144,7227 12160,7203 12200,7144 12217,7198 12227,7232 12227,7275 12219,7312 12210,7351 12206,7393 12197,7433 12189,7471 12175,7506 12175,7547 12175,7584 12165,7635 12187,7657 12213,7684 12244,7632 12265,7607 12290,7578 12305,7533 12326,7497 12355,7446 12386,7400 12420,7352 12443,7319 12455,7253 12486,7255 12519,7258 12534,7331 12534,7380 12534,7420 12537,7460 12527,7500 12517,7544 12503,7587 12498,7632 12493,7672 12484,7713 12488,7753 12492,7794 12506,7839 12537,7853 12564,7865 12596,7869 12622,7838 12657,7797 12680,7740 12704,7689 12727,7642 12752,7596 12767,7543 12780,7501 12790,7456 12799,7412 12808,7362 12828,7320 12833,7269 12837,7228 12855,7192 12860,7152 12865,7101 12880,7054 12891,7007 12904,6952 12903,6892 12918,6839 12932,6789 12935,6737 12945,6687 12952,6647 12961,6610 12966,6569 12971,6528 12986,6488 12995,6448 13006,6401 13010,6351 13029,6310 L 13042,6274 13051,6253 11780,5922 Z"/>
        <path fill="none" stroke="rgb(0,0,0)" stroke-width="20" d="M 11780,5922 C 11759,5983 11724,6030 11702,6089 11679,6150 11645,6201 11620,6260 11588,6333 11557,6408 11520,6476 11491,6530 11477,6598 11454,6658 11435,6710 11420,6767 11399,6818 11375,6878 11346,6935 11329,6999 11312,7061 11278,7103 11258,7159 11237,7219 11213,7279 11190,7337 11157,7423 11120,7508 11081,7589 11051,7653 11036,7734 10998,7792 10975,7828 10970,7882 10957,7927 10945,7970 10929,8011 10918,8056 10910,8090 10905,8127 10904,8166 10903,8205 10910,8244 10926,8276 10944,8315 10971,8348 11001,8368 11027,8386 11058,8385 11086,8393 11111,8401 11138,8402 11163,8397 11190,8392 11215,8372 11239,8354 11265,8334 11291,8309 11314,8279 11340,8246 11362,8207 11382,8166 11398,8131 11421,8099 11430,8059 11440,8016 11456,7979 11472,7942 11486,7907 11501,7872 11513,7835 11526,7792 11546,7757 11561,7718 11579,7674 11593,7629 11610,7586 11625,7547 11638,7504 11654,7465 11670,7423 11690,7383 11712,7348 11734,7311 11753,7269 11778,7238 11803,7206 11818,7166 11840,7131 11862,7096 11881,7057 11898,7017 11910,6991 11941,6907 11962,6989 11970,7023 11974,7060 11974,7095 11974,7134 11973,7173 11967,7209 11960,7248 11958,7290 11957,7330 11956,7365 11962,7402 11955,7437 11941,7498 11990,7478 12003,7462 12030,7427 12064,7400 12083,7355 12102,7312 12119,7265 12144,7227 12160,7203 12200,7144 12217,7198 12227,7232 12227,7275 12219,7312 12210,7351 12206,7393 12197,7433 12189,7471 12175,7506 12175,7547 12175,7584 12165,7635 12187,7657 12213,7684 12244,7632 12265,7607 12290,7578 12305,7533 12326,7497 12355,7446 12386,7400 12420,7352 12443,7319 12455,7253 12486,7255 12519,7258 12534,7331 12534,7380 12534,7420 12537,7460 12527,7500 12517,7544 12503,7587 12498,7632 12493,7672 12484,7713 12488,7753 12492,7794 12506,7839 12537,7853 12564,7865 12596,7869 12622,7838 12657,7797 12680,7740 12704,7689 12727,7642 12752,7596 12767,7543 12780,7501 12790,7456 12799,7412 12808,7362 12828,7320 12833,7269 12837,7228 12855,7192 12860,7152 12865,7101 12880,7054 12891,7007 12904,6952 12903,6892 12918,6839 12932,6789 12935,6737 12945,6687 12952,6647 12961,6610 12966,6569 12971,6528 12986,6488 12995,6448 13006,6401 13010,6351 13029,6310 L 13042,6274 13051,6253 11780,5922 Z"/>
       </g>
      </g>
      <g class="com.sun.star.drawing.LineShape">
       <g id="id13">
        <path fill="none" stroke="rgb(255,204,255)" stroke-width="100" d="M 11751,5922 L 13051,6222"/>
       </g>
      </g>
      <g class="com.sun.star.drawing.OpenFreeHandShape">
       <g id="id14">
        <path fill="none" stroke="rgb(0,0,0)" stroke-width="20" d="M 10300,7888 L 10432,8053 10548,8169"/>
       </g>
      </g>
      <g class="com.sun.star.drawing.OpenFreeHandShape">
       <g id="id15">
        <path fill="none" stroke="rgb(0,0,0)" stroke-width="20" d="M 10400,7789 L 10532,7954 10648,8070"/>
       </g>
      </g>
      <g class="com.sun.star.drawing.OpenFreeHandShape">
       <g id="id16">
        <path fill="none" stroke="rgb(0,0,0)" stroke-width="20" d="M 10500,7689 L 10632,7854 10748,7970"/>
       </g>
      </g>
     </g>
     <g class="com.sun.star.drawing.CustomShape">
      <g id="id17">
       <path fill="rgb(153,102,51)" stroke="none" d="M 15600,9000 L 2399,9000 2711,8599 15289,8599 15600,9000 Z M 15600,9000 L 15600,9000 Z M 2399,8599 L 2399,8599 Z"/>
       <path fill="none" stroke="rgb(52,101,175)" d="M 15600,9000 L 2399,9000 2711,8599 15289,8599 15600,9000 Z"/>
       <path fill="none" stroke="rgb(52,101,175)" d="M 15600,9000 L 15600,9000 Z"/>
       <path fill="none" stroke="rgb(52,101,175)" d="M 2399,8599 L 2399,8599 Z"/>
      </g>
     </g>
     <g class="com.sun.star.drawing.LineShape">
      <g id="id18">
       <path fill="none" stroke="rgb(0,0,0)" stroke-width="300" d="M 3000,8800 L 3000,8300"/>
      </g>
     </g>
     <g class="com.sun.star.drawing.LineShape">
      <g id="id19">
       <path fill="none" stroke="rgb(0,0,0)" stroke-width="300" d="M 15000,8800 L 15000,8300"/>
      </g>
     </g>
     <g class="com.sun.star.drawing.LineShape">
      <g id="id20">
       <path fill="none" stroke="rgb(102,102,102)" stroke-width="50" d="M 3033,8475 L 7100,8600"/>
      </g>
     </g>
     <g class="com.sun.star.drawing.LineShape">
      <g id="id21">
       <path fill="none" stroke="rgb(0,0,0)" d="M 7000,8600 L 7000,9000"/>
      </g>
     </g>
     <g class="com.sun.star.drawing.LineShape">
      <g id="id22">
       <path fill="none" stroke="rgb(102,102,102)" stroke-width="50" d="M 15000,8500 L 7100,8600"/>
      </g>
     </g>
     <g class="com.sun.star.drawing.ClosedFreeHandShape">
      <g id="id23">
       <path fill="rgb(255,204,255)" stroke="none" d="M 6974,10861 C 6978,10797 7000,10742 7006,10679 7012,10615 7032,10557 7041,10493 7053,10414 7064,10334 7082,10258 7095,10198 7092,10129 7098,10065 7103,10010 7103,9951 7110,9896 7118,9833 7131,9770 7131,9703 7131,9640 7153,9590 7158,9531 7163,9467 7171,9404 7177,9341 7187,9249 7201,9158 7218,9069 7230,9000 7224,8918 7245,8852 7258,8812 7249,8758 7250,8711 7250,8666 7255,8622 7254,8577 7253,8541 7248,8504 7239,8467 7230,8429 7213,8392 7190,8366 7162,8333 7127,8308 7093,8296 7064,8286 7034,8295 7005,8294 6979,8293 6953,8299 6929,8311 6905,8323 6886,8348 6867,8372 6847,8398 6829,8428 6814,8463 6798,8502 6786,8545 6778,8591 6771,8628 6757,8665 6759,8706 6760,8750 6755,8790 6749,8830 6744,8868 6739,8905 6737,8944 6735,8989 6725,9028 6720,9070 6715,9116 6712,9163 6708,9209 6703,9252 6701,9296 6697,9338 6692,9383 6682,9426 6671,9466 6659,9507 6652,9552 6636,9589 6620,9626 6615,9669 6603,9709 6591,9748 6583,9791 6576,9834 6572,9862 6563,9952 6522,9877 6505,9846 6492,9812 6483,9777 6473,9741 6463,9703 6460,9666 6457,9626 6448,9586 6439,9547 6431,9513 6415,9478 6413,9443 6411,9380 6368,9412 6360,9431 6343,9471 6318,9506 6310,9555 6303,9602 6299,9652 6285,9694 6276,9722 6252,9789 6222,9741 6203,9711 6192,9670 6190,9632 6189,9592 6182,9550 6180,9509 6178,9471 6182,9433 6172,9393 6162,9358 6158,9306 6131,9290 6099,9271 6083,9330 6069,9359 6053,9393 6050,9441 6039,9481 6024,9538 6006,9590 5986,9646 5972,9683 5977,9750 5947,9755 5915,9761 5881,9695 5868,9648 5858,9609 5845,9571 5844,9529 5843,9485 5844,9440 5838,9395 5832,9355 5830,9314 5816,9275 5801,9237 5776,9197 5743,9192 5714,9187 5682,9191 5665,9228 5642,9277 5634,9338 5624,9393 5614,9445 5602,9495 5601,9550 5600,9595 5601,9641 5604,9686 5608,9736 5600,9782 5609,9832 5615,9872 5607,9912 5613,9952 5621,10002 5618,10052 5620,10101 5622,10157 5639,10214 5638,10269 5637,10321 5647,10372 5651,10424 5655,10464 5655,10502 5661,10543 5667,10584 5662,10626 5664,10667 5666,10715 5675,10764 5667,10810 L 5664,10847 5661,10870 6974,10861 Z"/>
       <path fill="none" stroke="rgb(0,0,0)" stroke-width="20" d="M 6974,10861 C 6978,10797 7000,10742 7006,10679 7012,10615 7032,10557 7041,10493 7053,10414 7064,10334 7082,10258 7095,10198 7092,10129 7098,10065 7103,10010 7103,9951 7110,9896 7118,9833 7131,9770 7131,9703 7131,9640 7153,9590 7158,9531 7163,9467 7171,9404 7177,9341 7187,9249 7201,9158 7218,9069 7230,9000 7224,8918 7245,8852 7258,8812 7249,8758 7250,8711 7250,8666 7255,8622 7254,8577 7253,8541 7248,8504 7239,8467 7230,8429 7213,8392 7190,8366 7162,8333 7127,8308 7093,8296 7064,8286 7034,8295 7005,8294 6979,8293 6953,8299 6929,8311 6905,8323 6886,8348 6867,8372 6847,8398 6829,8428 6814,8463 6798,8502 6786,8545 6778,8591 6771,8628 6757,8665 6759,8706 6760,8750 6755,8790 6749,8830 6744,8868 6739,8905 6737,8944 6735,8989 6725,9028 6720,9070 6715,9116 6712,9163 6708,9209 6703,9252 6701,9296 6697,9338 6692,9383 6682,9426 6671,9466 6659,9507 6652,9552 6636,9589 6620,9626 6615,9669 6603,9709 6591,9748 6583,9791 6576,9834 6572,9862 6563,9952 6522,9877 6505,9846 6492,9812 6483,9777 6473,9741 6463,9703 6460,9666 6457,9626 6448,9586 6439,9547 6431,9513 6415,9478 6413,9443 6411,9380 6368,9412 6360,9431 6343,9471 6318,9506 6310,9555 6303,9602 6299,9652 6285,9694 6276,9722 6252,9789 6222,9741 6203,9711 6192,9670 6190,9632 6189,9592 6182,9550 6180,9509 6178,9471 6182,9433 6172,9393 6162,9358 6158,9306 6131,9290 6099,9271 6083,9330 6069,9359 6053,9393 6050,9441 6039,9481 6024,9538 6006,9590 5986,9646 5972,9683 5977,9750 5947,9755 5915,9761 5881,9695 5868,9648 5858,9609 5845,9571 5844,9529 5843,9485 5844,9440 5838,9395 5832,9355 5830,9314 5816,9275 5801,9237 5776,9197 5743,9192 5714,9187 5682,9191 5665,9228 5642,9277 5634,9338 5624,9393 5614,9445 5602,9495 5601,9550 5600,9595 5601,9641 5604,9686 5608,9736 5600,9782 5609,9832 5615,9872 5607,9912 5613,9952 5621,10002 5618,10052 5620,10101 5622,10157 5639,10214 5638,10269 5637,10321 5647,10372 5651,10424 5655,10464 5655,10502 5661,10543 5667,10584 5662,10626 5664,10667 5666,10715 5675,10764 5667,10810 L 5664,10847 5661,10870 6974,10861 Z"/>
      </g>
     </g>
     <g class="com.sun.star.drawing.LineShape">
      <g id="id24">
       <path fill="none" stroke="rgb(255,204,255)" stroke-width="100" d="M 7002,10853 L 5669,10900"/>
      </g>
     </g>
    </g>
   </g>
  </g>
 </g>
</svg>