<?xml version="1.0" encoding="UTF-8"?>
<svg xmlns="http://www.w3.org/2000/svg" xmlns:xlink="http://www.w3.org/1999/xlink" width="66.484pt" height="94.83pt" viewBox="0 0 66.484 94.83" version="1.1">
<defs>
<clipPath id="clip1">
  <path d="M 0 85 L 10 85 L 10 94.828125 L 0 94.828125 Z M 0 85 "/>
</clipPath>
<clipPath id="clip2">
  <path d="M 0 79 L 16 79 L 16 94.828125 L 0 94.828125 Z M 0 79 "/>
</clipPath>
<clipPath id="clip3">
  <path d="M 56 85 L 66.484375 85 L 66.484375 94.828125 L 56 94.828125 Z M 56 85 "/>
</clipPath>
<clipPath id="clip4">
  <path d="M 51 79 L 66.484375 79 L 66.484375 94.828125 L 51 94.828125 Z M 51 79 "/>
</clipPath>
<clipPath id="clip5">
  <path d="M 56 28 L 66.484375 28 L 66.484375 38 L 56 38 Z M 56 28 "/>
</clipPath>
<clipPath id="clip6">
  <path d="M 51 22 L 66.484375 22 L 66.484375 44 L 51 44 Z M 51 22 "/>
</clipPath>
<clipPath id="clip7">
  <path d="M 0 16 L 66.484375 16 L 66.484375 94.828125 L 0 94.828125 Z M 0 16 "/>
</clipPath>
<clipPath id="clip8">
  <path d="M 0 16 L 66.484375 16 L 66.484375 94.828125 L 0 94.828125 Z M 0 16 "/>
</clipPath>
<clipPath id="clip9">
  <path d="M 16 0 L 66.484375 0 L 66.484375 50 L 16 50 Z M 16 0 "/>
</clipPath>
</defs>
<g id="surface1">
<g clip-path="url(#clip1)" clip-rule="nonzero">
<path style=" stroke:none;fill-rule:nonzero;fill:rgb(0%,0%,0%);fill-opacity:1;" d="M 9.589844 89.933594 C 9.589844 87.339844 7.488281 85.238281 4.894531 85.238281 C 2.300781 85.238281 0.199219 87.339844 0.199219 89.933594 C 0.199219 92.527344 2.300781 94.628906 4.894531 94.628906 C 7.488281 94.628906 9.589844 92.527344 9.589844 89.933594 Z M 9.589844 89.933594 "/>
</g>
<g clip-path="url(#clip2)" clip-rule="nonzero">
<path style="fill:none;stroke-width:0.3985;stroke-linecap:butt;stroke-linejoin:miter;stroke:rgb(0%,0%,0%);stroke-opacity:1;stroke-miterlimit:10;" d="M 4.694844 0.00040625 C 4.694844 2.594156 2.593281 4.695719 -0.00046875 4.695719 C -2.594219 4.695719 -4.695781 2.594156 -4.695781 0.00040625 C -4.695781 -2.593344 -2.594219 -4.694906 -0.00046875 -4.694906 C 2.593281 -4.694906 4.694844 -2.593344 4.694844 0.00040625 Z M 4.694844 0.00040625 " transform="matrix(1,0,0,-1,4.895,89.934)"/>
</g>
<g clip-path="url(#clip3)" clip-rule="nonzero">
<path style=" stroke:none;fill-rule:nonzero;fill:rgb(0%,0%,0%);fill-opacity:1;" d="M 66.285156 89.933594 C 66.285156 87.339844 64.183594 85.238281 61.589844 85.238281 C 58.996094 85.238281 56.890625 87.339844 56.890625 89.933594 C 56.890625 92.527344 58.996094 94.628906 61.589844 94.628906 C 64.183594 94.628906 66.285156 92.527344 66.285156 89.933594 Z M 66.285156 89.933594 "/>
</g>
<g clip-path="url(#clip4)" clip-rule="nonzero">
<path style="fill:none;stroke-width:0.3985;stroke-linecap:butt;stroke-linejoin:miter;stroke:rgb(0%,0%,0%);stroke-opacity:1;stroke-miterlimit:10;" d="M 61.390156 0.00040625 C 61.390156 2.594156 59.288594 4.695719 56.694844 4.695719 C 54.101094 4.695719 51.995625 2.594156 51.995625 0.00040625 C 51.995625 -2.593344 54.101094 -4.694906 56.694844 -4.694906 C 59.288594 -4.694906 61.390156 -2.593344 61.390156 0.00040625 Z M 61.390156 0.00040625 " transform="matrix(1,0,0,-1,4.895,89.934)"/>
</g>
<path style="fill-rule:nonzero;fill:rgb(0%,0%,0%);fill-opacity:1;stroke-width:0.3985;stroke-linecap:butt;stroke-linejoin:miter;stroke:rgb(0%,0%,0%);stroke-opacity:1;stroke-miterlimit:10;" d="M 4.694844 56.691812 C 4.694844 59.285562 2.593281 61.391031 -0.00046875 61.391031 C -2.594219 61.391031 -4.695781 59.285562 -4.695781 56.691812 C -4.695781 54.098062 -2.594219 51.9965 -0.00046875 51.9965 C 2.593281 51.9965 4.694844 54.098062 4.694844 56.691812 Z M 4.694844 56.691812 " transform="matrix(1,0,0,-1,4.895,89.934)"/>
<g clip-path="url(#clip5)" clip-rule="nonzero">
<path style=" stroke:none;fill-rule:nonzero;fill:rgb(0%,0%,0%);fill-opacity:1;" d="M 66.285156 33.242188 C 66.285156 30.648438 64.183594 28.542969 61.589844 28.542969 C 58.996094 28.542969 56.890625 30.648438 56.890625 33.242188 C 56.890625 35.835938 58.996094 37.9375 61.589844 37.9375 C 64.183594 37.9375 66.285156 35.835938 66.285156 33.242188 Z M 66.285156 33.242188 "/>
</g>
<g clip-path="url(#clip6)" clip-rule="nonzero">
<path style="fill:none;stroke-width:0.3985;stroke-linecap:butt;stroke-linejoin:miter;stroke:rgb(0%,0%,0%);stroke-opacity:1;stroke-miterlimit:10;" d="M 61.390156 56.691812 C 61.390156 59.285562 59.288594 61.391031 56.694844 61.391031 C 54.101094 61.391031 51.995625 59.285562 51.995625 56.691812 C 51.995625 54.098062 54.101094 51.9965 56.694844 51.9965 C 59.288594 51.9965 61.390156 54.098062 61.390156 56.691812 Z M 61.390156 56.691812 " transform="matrix(1,0,0,-1,4.895,89.934)"/>
</g>
<path style="fill-rule:nonzero;fill:rgb(0%,0%,0%);fill-opacity:1;stroke-width:0.3985;stroke-linecap:butt;stroke-linejoin:miter;stroke:rgb(0%,0%,0%);stroke-opacity:1;stroke-miterlimit:10;" d="M 33.0425 28.348062 C 33.0425 30.941812 30.940938 33.043375 28.347188 33.043375 C 25.753438 33.043375 23.651875 30.941812 23.651875 28.348062 C 23.651875 25.754312 25.753438 23.648844 28.347188 23.648844 C 30.940938 23.648844 33.0425 25.754312 33.0425 28.348062 Z M 33.0425 28.348062 " transform="matrix(1,0,0,-1,4.895,89.934)"/>
<path style="fill-rule:nonzero;fill:rgb(0%,0%,0%);fill-opacity:1;stroke-width:0.3985;stroke-linecap:butt;stroke-linejoin:miter;stroke:rgb(0%,0%,0%);stroke-opacity:1;stroke-miterlimit:10;" d="M 33.0425 85.039469 C 33.0425 87.633219 30.940938 89.738687 28.347188 89.738687 C 25.753438 89.738687 23.651875 87.633219 23.651875 85.039469 C 23.651875 82.445719 25.753438 80.344156 28.347188 80.344156 C 30.940938 80.344156 33.0425 82.445719 33.0425 85.039469 Z M 33.0425 85.039469 " transform="matrix(1,0,0,-1,4.895,89.934)"/>
<path style="fill:none;stroke-width:1.41731;stroke-linecap:butt;stroke-linejoin:miter;stroke:rgb(0%,0%,0%);stroke-opacity:1;stroke-miterlimit:10;" d="M 4.894063 0.00040625 L 51.796406 0.00040625 " transform="matrix(1,0,0,-1,4.895,89.934)"/>
<g clip-path="url(#clip7)" clip-rule="nonzero">
<path style="fill:none;stroke-width:1.41731;stroke-linecap:butt;stroke-linejoin:miter;stroke:rgb(0%,0%,0%);stroke-opacity:1;stroke-miterlimit:10;" d="M 3.460469 53.230875 L 53.23 3.461344 " transform="matrix(1,0,0,-1,4.895,89.934)"/>
</g>
<path style="fill:none;stroke-width:1.41731;stroke-linecap:butt;stroke-linejoin:miter;stroke:rgb(0%,0%,0%);stroke-opacity:1;stroke-miterlimit:10;" d="M 51.796406 56.691812 L 4.894063 56.691812 " transform="matrix(1,0,0,-1,4.895,89.934)"/>
<g clip-path="url(#clip8)" clip-rule="nonzero">
<path style="fill:none;stroke-width:1.41731;stroke-linecap:butt;stroke-linejoin:miter;stroke:rgb(0%,0%,0%);stroke-opacity:1;stroke-miterlimit:10;" d="M 53.23 53.230875 L 3.460469 3.461344 " transform="matrix(1,0,0,-1,4.895,89.934)"/>
</g>
<path style="fill:none;stroke-width:1.41731;stroke-linecap:butt;stroke-linejoin:miter;stroke:rgb(0%,0%,0%);stroke-opacity:1;stroke-miterlimit:10;" d="M -0.00046875 4.894937 L -0.00046875 51.797281 " transform="matrix(1,0,0,-1,4.895,89.934)"/>
<path style="fill:none;stroke-width:1.41731;stroke-linecap:butt;stroke-linejoin:miter;stroke:rgb(0%,0%,0%);stroke-opacity:1;stroke-miterlimit:10;" d="M 56.694844 4.894937 L 56.694844 51.797281 " transform="matrix(1,0,0,-1,4.895,89.934)"/>
<g clip-path="url(#clip9)" clip-rule="nonzero">
<path style="fill:none;stroke-width:1.41731;stroke-linecap:butt;stroke-linejoin:miter;stroke:rgb(0%,0%,0%);stroke-opacity:1;stroke-miterlimit:10;" d="M 53.23 60.156656 L 31.808125 81.578531 " transform="matrix(1,0,0,-1,4.895,89.934)"/>
</g>
<path style="fill:none;stroke-width:1.41731;stroke-linecap:butt;stroke-linejoin:miter;stroke:rgb(0%,0%,0%);stroke-opacity:1;stroke-miterlimit:10;" d="M 3.460469 60.156656 L 24.88625 81.578531 " transform="matrix(1,0,0,-1,4.895,89.934)"/>
</g>
</svg>
