<?xml version="1.0" encoding="UTF-8" standalone="no"?>
<!-- Created with Inkscape (http://www.inkscape.org/) -->
<svg xmlns:dc="http://purl.org/dc/elements/1.1/" xmlns:cc="http://creativecommons.org/ns#" xmlns:rdf="http://www.w3.org/1999/02/22-rdf-syntax-ns#" xmlns:svg="http://www.w3.org/2000/svg" xmlns="http://www.w3.org/2000/svg" xmlns:xlink="http://www.w3.org/1999/xlink" xmlns:sodipodi="http://sodipodi.sourceforge.net/DTD/sodipodi-0.dtd" xmlns:inkscape="http://www.inkscape.org/namespaces/inkscape" width="1405.2234" height="799.61682" id="svg2426" sodipodi:version="0.32" inkscape:version="0.46" sodipodi:docname="Ein Hase mit blauem Ei.svg" inkscape:output_extension="org.inkscape.output.svg.inkscape" version="1.0">
  <defs id="defs2428">
    <inkscape:perspective sodipodi:type="inkscape:persp3d" inkscape:vp_x="0 : 526.18109 : 1" inkscape:vp_y="0 : 1000 : 0" inkscape:vp_z="744.09448 : 526.18109 : 1" inkscape:persp3d-origin="372.04724 : 350.78739 : 1" id="perspective2434"/>
  </defs>
  <sodipodi:namedview id="base" pagecolor="#ffffff" bordercolor="#666666" borderopacity="1.0" inkscape:pageopacity="0.0" inkscape:pageshadow="2" inkscape:zoom="0.49497475" inkscape:cx="703.79415" inkscape:cy="275.47753" inkscape:document-units="px" inkscape:current-layer="layer1" showgrid="false" inkscape:window-width="1280" inkscape:window-height="977" inkscape:window-x="0" inkscape:window-y="20"/>
  <metadata id="metadata2431">
    <rdf:RDF>
      <cc:Work rdf:about="">
        <dc:format>image/svg+xml</dc:format>
        <dc:type rdf:resource="http://purl.org/dc/dcmitype/StillImage"/>
      </cc:Work>
    </rdf:RDF>
  </metadata>
  <g inkscape:label="Ebene 1" inkscape:groupmode="layer" id="layer1" transform="translate(340.52258,35.782349)">
    <rect style="opacity:0.72200006;fill:#aaccff;fill-opacity:1;stroke:none;stroke-width:3;stroke-miterlimit:4;stroke-dasharray:none;stroke-opacity:1" id="rect3356" width="1400.0714" height="666.70068" x="-335.37064" y="-35.782349"/>
    <path sodipodi:type="arc" style="opacity:1;fill:#71c837;fill-opacity:1;fill-rule:nonzero;stroke:#00af13;stroke-width:2.14194727;stroke-linecap:round;stroke-linejoin:miter;stroke-miterlimit:4;stroke-dasharray:none;stroke-dashoffset:0;stroke-opacity:0.99607801" id="path3301" sodipodi:cx="371.42856" sodipodi:cy="902.36218" sodipodi:rx="357.14285" sodipodi:ry="145.71428" d="M 728.57141,902.36218 A 357.14285,145.71428 0 1 1 14.285706,902.36218 A 357.14285,145.71428 0 1 1 728.57141,902.36218 z" transform="matrix(1.9616652,0,0,1,-367.04635,-285.742)"/>
    <g id="g2525" transform="translate(-1107.1272,923.27942)">
      <path transform="matrix(0.841463,0,0,1,786.28544,-331.6186)" d="M 398.57143,664.14789 A 146.42857,148.92857 0 1 1 105.71428,664.14789 A 146.42857,148.92857 0 1 1 398.57143,664.14789 z" sodipodi:ry="148.92857" sodipodi:rx="146.42857" sodipodi:cy="664.14789" sodipodi:cx="252.14285" id="path2473" style="opacity:1;fill:#808080;fill-opacity:1;fill-rule:nonzero;stroke:#000000;stroke-width:3.27042007;stroke-linecap:round;stroke-linejoin:miter;stroke-miterlimit:4;stroke-dasharray:none;stroke-dashoffset:0;stroke-opacity:1" sodipodi:type="arc"/>
      <path transform="matrix(0.90411,0,0,1,741.90344,-304.4836)" d="M 396.98994,457.12979 A 110.6117,84.600273 0 1 1 175.76653,457.12979 A 110.6117,84.600273 0 1 1 396.98994,457.12979 z" sodipodi:ry="84.600273" sodipodi:rx="110.6117" sodipodi:cy="457.12979" sodipodi:cx="286.37823" id="path2475" style="opacity:1;fill:#808080;fill-opacity:1;fill-rule:nonzero;stroke:#000000;stroke-width:3;stroke-linecap:round;stroke-linejoin:miter;stroke-miterlimit:4;stroke-dasharray:none;stroke-dashoffset:0;stroke-opacity:1" sodipodi:type="arc"/>
      <path transform="matrix(1.22536,-0.360159,0.371506,1.26396,519.41744,-324.5736)" d="M 267.14285,333.07648 A 25,72.14286 0 1 1 217.14285,333.07648 A 25,72.14286 0 1 1 267.14285,333.07648 z" sodipodi:ry="72.14286" sodipodi:rx="25" sodipodi:cy="333.07648" sodipodi:cx="242.14285" id="path2477" style="opacity:1;fill:#808080;fill-opacity:1;stroke:#000000;stroke-width:2.31276011;stroke-linecap:round;stroke-linejoin:miter;stroke-miterlimit:4;stroke-dasharray:none;stroke-dashoffset:0;stroke-opacity:1" sodipodi:type="arc"/>
      <path transform="matrix(0.83629,-0.245804,0.259361,0.882414,659.01814,-197.198)" d="M 267.14285,333.07648 A 25,72.14286 0 1 1 217.14285,333.07648 A 25,72.14286 0 1 1 267.14285,333.07648 z" sodipodi:ry="72.14286" sodipodi:rx="25" sodipodi:cy="333.07648" sodipodi:cx="242.14285" id="path2479" style="opacity:0.5;fill:#ffaaaa;fill-opacity:1;stroke:#000000;stroke-width:2.31276011;stroke-linecap:round;stroke-linejoin:miter;stroke-miterlimit:4;stroke-dasharray:none;stroke-dashoffset:0;stroke-opacity:1" sodipodi:type="arc"/>
      <path transform="matrix(1.23773,0.315014,-0.324939,1.27673,874.82544,-494.3106)" d="M 267.14285,333.07648 A 25,72.14286 0 1 1 217.14285,333.07648 A 25,72.14286 0 1 1 267.14285,333.07648 z" sodipodi:ry="72.14286" sodipodi:rx="25" sodipodi:cy="333.07648" sodipodi:cx="242.14285" id="path2481" style="opacity:1;fill:#808080;fill-opacity:1;stroke:#000000;stroke-width:2.31276011;stroke-linecap:round;stroke-linejoin:miter;stroke-miterlimit:4;stroke-dasharray:none;stroke-dashoffset:0;stroke-opacity:1" sodipodi:type="arc"/>
      <path transform="matrix(0.844736,0.214993,-0.226851,0.891326,930.86244,-315.8086)" d="M 267.14285,333.07648 A 25,72.14286 0 1 1 217.14285,333.07648 A 25,72.14286 0 1 1 267.14285,333.07648 z" sodipodi:ry="72.14286" sodipodi:rx="25" sodipodi:cy="333.07648" sodipodi:cx="242.14285" id="path2483" style="opacity:0.5;fill:#ffaaaa;fill-opacity:1;stroke:#000000;stroke-width:2.31276011;stroke-linecap:round;stroke-linejoin:miter;stroke-miterlimit:4;stroke-dasharray:none;stroke-dashoffset:0;stroke-opacity:1" sodipodi:type="arc"/>
      <path transform="matrix(0.55814,0,0,1.21739,827.08544,-392.3856)" d="M 277.79194,427.58282 A 10.859139,11.616755 0 1 1 256.07366,427.58282 A 10.859139,11.616755 0 1 1 277.79194,427.58282 z" sodipodi:ry="11.616755" sodipodi:rx="10.859139" sodipodi:cy="427.58282" sodipodi:cx="266.9328" id="path2485" style="opacity:1;fill:#000000;fill-opacity:1;fill-rule:nonzero;stroke:#000000;stroke-width:3;stroke-linecap:round;stroke-linejoin:miter;stroke-miterlimit:4;stroke-dasharray:none;stroke-dashoffset:0;stroke-opacity:1" sodipodi:type="arc"/>
      <path transform="matrix(0.55814,0,0,1.21739,871.61144,-392.8706)" d="M 277.79194,427.58282 A 10.859139,11.616755 0 1 1 256.07366,427.58282 A 10.859139,11.616755 0 1 1 277.79194,427.58282 z" sodipodi:ry="11.616755" sodipodi:rx="10.859139" sodipodi:cy="427.58282" sodipodi:cx="266.9328" id="path2487" style="opacity:1;fill:#000000;fill-opacity:1;fill-rule:nonzero;stroke:#000000;stroke-width:3;stroke-linecap:round;stroke-linejoin:miter;stroke-miterlimit:4;stroke-dasharray:none;stroke-dashoffset:0;stroke-opacity:1" sodipodi:type="arc"/>
      <path transform="matrix(1.13187,0,0,1.18881,662.45254,-403.2896)" d="M 344.46203,500.56635 A 45.961941,36.112953 0 1 1 252.53815,500.56635 A 45.961941,36.112953 0 1 1 344.46203,500.56635 z" sodipodi:ry="36.112953" sodipodi:rx="45.961941" sodipodi:cy="500.56635" sodipodi:cx="298.50009" id="path2489" style="opacity:1;fill:#ac9d93;fill-opacity:1;fill-rule:nonzero;stroke:none;stroke-width:3;stroke-linecap:round;stroke-linejoin:miter;stroke-miterlimit:4;stroke-dasharray:none;stroke-dashoffset:0;stroke-opacity:1" sodipodi:type="arc"/>
      <path id="path2491" d="M 892.22889,150.37331 L 958.89896,186.23373" style="fill:none;fill-rule:evenodd;stroke:#000000;stroke-width:1px;stroke-linecap:butt;stroke-linejoin:miter;stroke-opacity:1"/>
      <path id="path2493" d="M 901.32027,165.27306 L 967.99034,201.13348" style="fill:none;fill-rule:evenodd;stroke:#000000;stroke-width:1px;stroke-linecap:butt;stroke-linejoin:miter;stroke-opacity:1"/>
      <path id="path2495" d="M 905.36088,140.52433 L 972.03095,176.38475" style="fill:none;fill-rule:evenodd;stroke:#000000;stroke-width:1px;stroke-linecap:butt;stroke-linejoin:miter;stroke-opacity:1"/>
      <path id="path2497" d="M 1105.3942,152.61182 L 1038.7241,188.47224" style="fill:none;fill-rule:evenodd;stroke:#000000;stroke-width:1px;stroke-linecap:butt;stroke-linejoin:miter;stroke-opacity:1"/>
      <path id="path2499" d="M 1096.3028,167.51157 L 1029.6327,203.37199" style="fill:none;fill-rule:evenodd;stroke:#000000;stroke-width:1px;stroke-linecap:butt;stroke-linejoin:miter;stroke-opacity:1"/>
      <path id="path2501" d="M 1092.2622,142.76284 L 1025.5921,178.62326" style="fill:none;fill-rule:evenodd;stroke:#000000;stroke-width:1px;stroke-linecap:butt;stroke-linejoin:miter;stroke-opacity:1"/>
      <path sodipodi:nodetypes="cssssc" id="path2503" d="M 984.15277,211.99262 C 985.22877,214.36732 986.2517,220.22896 988.06712,222.47295 C 990.53942,225.52888 992.94253,227.5237 996.90595,227.5237 C 1000.1801,227.5237 1004.1218,228.06499 1007.0075,226.26102 C 1009.8967,224.45481 1012.6538,223.56414 1013.5735,220.83145 C 1014.3861,218.41691 1016.453,214.11157 1016.9827,211.99261" style="fill:none;fill-rule:evenodd;stroke:#000000;stroke-width:1px;stroke-linecap:butt;stroke-linejoin:miter;stroke-opacity:1"/>
      <path transform="translate(793.62644,-455.5296)" d="M 217.14285,643.79077 A 11.071428,12.142858 0 1 1 195,643.79077 A 11.071428,12.142858 0 1 1 217.14285,643.79077 z" sodipodi:ry="12.142858" sodipodi:rx="11.071428" sodipodi:cy="643.79077" sodipodi:cx="206.07143" id="path2505" style="opacity:1;fill:#000000;fill-opacity:1;fill-rule:nonzero;stroke:#000000;stroke-width:3;stroke-linecap:round;stroke-linejoin:miter;stroke-miterlimit:4;stroke-dasharray:none;stroke-dashoffset:0;stroke-opacity:1" sodipodi:type="arc"/>
      <path transform="matrix(1.1404,0.665998,-0.661179,0.98386,1000.3044,-659.1666)" d="M 467.85715,850.57648 A 62.142857,21.785715 0 1 1 343.57144,850.57648 A 62.142857,21.785715 0 1 1 467.85715,850.57648 z" sodipodi:ry="21.785715" sodipodi:rx="62.142857" sodipodi:cy="850.57648" sodipodi:cx="405.71429" id="path2507" style="opacity:1;fill:#808080;fill-opacity:1;fill-rule:nonzero;stroke:#000000;stroke-width:2.40012002;stroke-linecap:round;stroke-linejoin:miter;stroke-miterlimit:4;stroke-dasharray:none;stroke-dashoffset:0;stroke-opacity:1" sodipodi:type="arc"/>
      <path transform="matrix(-1.0672,0.665998,0.618738,0.98386,998.71944,-659.1666)" d="M 467.85715,850.57648 A 62.142857,21.785715 0 1 1 343.57144,850.57648 A 62.142857,21.785715 0 1 1 467.85715,850.57648 z" sodipodi:ry="21.785715" sodipodi:rx="62.142857" sodipodi:cy="850.57648" sodipodi:cx="405.71429" id="path2509" style="opacity:1;fill:#808080;fill-opacity:1;fill-rule:nonzero;stroke:#000000;stroke-width:2.48108006;stroke-linecap:round;stroke-linejoin:miter;stroke-miterlimit:4;stroke-dasharray:none;stroke-dashoffset:0;stroke-opacity:1" sodipodi:type="arc"/>
    </g>
    <use x="0" y="0" xlink:href="#g2525" id="use2546" transform="translate(478.8123,-832.3657)" width="744.09448" height="774.35999"/>
    <path sodipodi:type="arc" style="opacity:1;fill:#808080;fill-opacity:1;fill-rule:nonzero;stroke:#000000;stroke-width:3.09603;stroke-linecap:round;stroke-linejoin:miter;stroke-miterlimit:4;stroke-dasharray:none;stroke-dashoffset:0;stroke-opacity:1" id="path2511" sodipodi:cx="196.42857" sodipodi:cy="674.86218" sodipodi:rx="26.428572" sodipodi:ry="55.357143" d="M 222.85715,674.86218 A 26.428572,55.357143 0 1 1 170,674.86218 A 26.428572,55.357143 0 1 1 222.85715,674.86218 z" transform="matrix(-0.895966,-0.237439,-0.858714,0.820383,1181.1608,-97.980955)"/>
    <g id="g3328" transform="matrix(1.3884636,0,0,1.3884636,-70.781368,-428.72807)">
      <path transform="matrix(0.930851,0,0,1,-203.55188,495.49347)" d="M 582.14284,562.7193 A 33.57143,42.5 0 1 1 514.99998,562.7193 A 33.57143,42.5 0 1 1 582.14284,562.7193 z" sodipodi:ry="42.5" sodipodi:rx="33.57143" sodipodi:cy="562.7193" sodipodi:cx="548.57141" id="path3318" style="opacity:1;fill:#ff0000;fill-opacity:1;fill-rule:nonzero;stroke:#501616;stroke-width:3.1094327;stroke-linecap:round;stroke-linejoin:miter;stroke-miterlimit:4;stroke-dasharray:none;stroke-dashoffset:0;stroke-opacity:1" sodipodi:type="arc"/>
      <path id="path3320" d="M 306.1043,1014.9093 C 307.53287,1101.1593 276.99716,1077.5878 276.99716,1077.5878" style="fill:none;fill-rule:evenodd;stroke:#501616;stroke-width:2;stroke-linecap:butt;stroke-linejoin:miter;stroke-miterlimit:4;stroke-dasharray:none;stroke-opacity:1"/>
      <path id="path3322" d="M 305.86075,1014.2408 C 304.43218,1100.4908 334.96789,1076.9193 334.96789,1076.9193" style="fill:none;fill-rule:evenodd;stroke:#501616;stroke-width:2;stroke-linecap:butt;stroke-linejoin:miter;stroke-miterlimit:4;stroke-dasharray:none;stroke-opacity:1"/>
      <path id="path3324" d="M 305.455,1102.0063 C 306.88357,1015.7563 276.34786,1039.3277 276.34786,1039.3277" style="fill:none;fill-rule:evenodd;stroke:#501616;stroke-width:2;stroke-linecap:butt;stroke-linejoin:miter;stroke-miterlimit:4;stroke-dasharray:none;stroke-opacity:1"/>
      <path id="path3326" d="M 305.32504,1102.1849 C 303.89647,1015.9349 334.43218,1039.5063 334.43218,1039.5063" style="fill:none;fill-rule:evenodd;stroke:#501616;stroke-width:2;stroke-linecap:butt;stroke-linejoin:miter;stroke-miterlimit:4;stroke-dasharray:none;stroke-opacity:1"/>
    </g>
    <path sodipodi:type="arc" style="opacity:1;fill:#808080;fill-opacity:1;fill-rule:nonzero;stroke:#000000;stroke-width:3.09603;stroke-linecap:round;stroke-linejoin:miter;stroke-miterlimit:4;stroke-dasharray:none;stroke-dashoffset:0;stroke-opacity:1" id="path3350" sodipodi:cx="196.42857" sodipodi:cy="674.86218" sodipodi:rx="26.428572" sodipodi:ry="55.357143" d="M 222.85715,674.86218 A 26.428572,55.357143 0 1 1 170,674.86218 A 26.428572,55.357143 0 1 1 222.85715,674.86218 z" transform="matrix(0.895966,-0.237439,0.858714,0.820383,-442.04439,-104.55178)"/>
    <path sodipodi:type="arc" style="opacity:1;fill:#808080;fill-opacity:1;fill-rule:nonzero;stroke:#000000;stroke-width:3.09603;stroke-linecap:round;stroke-linejoin:miter;stroke-miterlimit:4;stroke-dasharray:none;stroke-dashoffset:0;stroke-opacity:1" id="path3358" sodipodi:cx="196.42857" sodipodi:cy="674.86218" sodipodi:rx="26.428572" sodipodi:ry="55.357143" d="M 222.85715,674.86218 A 26.428572,55.357143 0 1 1 170,674.86218 A 26.428572,55.357143 0 1 1 222.85715,674.86218 z" transform="matrix(0.895966,-0.237439,0.858714,0.820383,-1174.8214,-98.74488)"/>
    <g id="g3335" transform="matrix(1.3884636,0,0,1.3884636,98.357046,-1042.4501)">
      <path transform="matrix(0.930851,0,0,1,-309.8219,499.99967)" d="M 582.14284,562.7193 A 33.57143,42.5 0 1 1 514.99998,562.7193 A 33.57143,42.5 0 1 1 582.14284,562.7193 z" sodipodi:ry="42.5" sodipodi:rx="33.57143" sodipodi:cy="562.7193" sodipodi:cx="548.57141" id="path3351" style="opacity:1;fill:#0000ff;fill-opacity:1;fill-rule:nonzero;stroke:#00afff;stroke-width:3.10943007;stroke-linecap:round;stroke-linejoin:miter;stroke-miterlimit:4;stroke-dasharray:none;stroke-dashoffset:0;stroke-opacity:0.99354799" sodipodi:type="arc"/>
      <path id="path3353" d="M 199.83428,1019.4155 C 201.26285,1105.6655 170.72714,1082.094 170.72714,1082.094" style="fill:none;fill-rule:evenodd;stroke:#00afff;stroke-width:2;stroke-linecap:butt;stroke-linejoin:miter;stroke-miterlimit:4;stroke-dasharray:none;stroke-opacity:0.99607801"/>
      <path id="path3355" d="M 199.59073,1018.747 C 198.16216,1104.997 228.69787,1081.4255 228.69787,1081.4255" style="fill:none;fill-rule:evenodd;stroke:#00afff;stroke-width:2;stroke-linecap:butt;stroke-linejoin:miter;stroke-miterlimit:4;stroke-dasharray:none;stroke-opacity:0.99607801"/>
      <path id="path3357" d="M 199.18498,1106.5125 C 200.61355,1020.2625 170.07784,1043.8339 170.07784,1043.8339" style="fill:none;fill-rule:evenodd;stroke:#00afff;stroke-width:2;stroke-linecap:butt;stroke-linejoin:miter;stroke-miterlimit:4;stroke-dasharray:none;stroke-opacity:0.99607801"/>
      <path id="path3359" d="M 199.05502,1106.6911 C 197.62645,1020.4411 228.16216,1044.0125 228.16216,1044.0125" style="fill:none;fill-rule:evenodd;stroke:#00afff;stroke-width:2;stroke-linecap:butt;stroke-linejoin:miter;stroke-miterlimit:4;stroke-dasharray:none;stroke-opacity:0.99607801"/>
    </g>
    <path sodipodi:type="arc" style="opacity:1;fill:#808080;fill-opacity:1;fill-rule:nonzero;stroke:#000000;stroke-width:3.09603;stroke-linecap:round;stroke-linejoin:miter;stroke-miterlimit:4;stroke-dasharray:none;stroke-dashoffset:0;stroke-opacity:1" id="path3360" sodipodi:cx="196.42857" sodipodi:cy="674.86218" sodipodi:rx="26.428572" sodipodi:ry="55.357143" d="M 222.85715,674.86218 A 26.428572,55.357143 0 1 1 170,674.86218 A 26.428572,55.357143 0 1 1 222.85715,674.86218 z" transform="matrix(-0.895966,-0.237439,-0.858714,0.820383,1910.0101,-102.78549)"/>
    <g transform="matrix(1.3884636,0,0,1.3884636,853.95116,-894.96787)" id="use3368">
      <path sodipodi:type="arc" style="opacity:1;fill:#0000ff;fill-opacity:1;fill-rule:nonzero;stroke:#00afff;stroke-width:3.10943007;stroke-linecap:round;stroke-linejoin:miter;stroke-miterlimit:4;stroke-dasharray:none;stroke-dashoffset:0;stroke-opacity:0.99354799" id="path2430" sodipodi:cx="548.57141" sodipodi:cy="562.7193" sodipodi:rx="33.57143" sodipodi:ry="42.5" d="M 582.14284,562.7193 A 33.57143,42.5 0 1 1 514.99998,562.7193 A 33.57143,42.5 0 1 1 582.14284,562.7193 z" transform="matrix(0.930851,0,0,1,-309.8219,499.99967)"/>
      <path style="fill:none;fill-rule:evenodd;stroke:#00afff;stroke-width:2;stroke-linecap:butt;stroke-linejoin:miter;stroke-miterlimit:4;stroke-dasharray:none;stroke-opacity:0.99607801" d="M 199.83428,1019.4155 C 201.26285,1105.6655 170.72714,1082.094 170.72714,1082.094" id="path2432"/>
      <path style="fill:none;fill-rule:evenodd;stroke:#00afff;stroke-width:2;stroke-linecap:butt;stroke-linejoin:miter;stroke-miterlimit:4;stroke-dasharray:none;stroke-opacity:0.99607801" d="M 199.59073,1018.747 C 198.16216,1104.997 228.69787,1081.4255 228.69787,1081.4255" id="path2434"/>
      <path style="fill:none;fill-rule:evenodd;stroke:#00afff;stroke-width:2;stroke-linecap:butt;stroke-linejoin:miter;stroke-miterlimit:4;stroke-dasharray:none;stroke-opacity:0.99607801" d="M 199.18498,1106.5125 C 200.61355,1020.2625 170.07784,1043.8339 170.07784,1043.8339" id="path2436"/>
      <path style="fill:none;fill-rule:evenodd;stroke:#00afff;stroke-width:2;stroke-linecap:butt;stroke-linejoin:miter;stroke-miterlimit:4;stroke-dasharray:none;stroke-opacity:0.99607801" d="M 199.05502,1106.6911 C 197.62645,1020.4411 228.16216,1044.0125 228.16216,1044.0125" id="path2438"/>
    </g>
  </g>
</svg>